<svg xmlns="http://www.w3.org/2000/svg" viewBox="0 0 336.96 277.92"><defs><style>.ab1c99b8-8d87-4205-a1a9-ffe8364d373c{fill:#bad3af;}.a14e91c1-26c4-4e7a-af59-b563d2807d91{fill:none;stroke:#1d1d1b;stroke-miterlimit:10;stroke-width:2px;}</style></defs><title>dTeilorg_Explorador_Iconos</title><g id="a5dc8fe0-00ac-4018-8413-8a4ce334b7ce" data-name="Origen"><path class="ab1c99b8-8d87-4205-a1a9-ffe8364d373c" d="M104,148.18c6.48,8.88,10.41,5.58,15,4.86s10.8-7.44,10.8-7.44,5.28-4.32,10.44-1.2c0,0,14.28-1.32,15.6-8.4,0,0,23.88-13.2,33-4.8,0,0,12.6,10.62,15.48,11.1,0,0,8,5.46,12.12,4,0,0,26.64,7,36.48-3.36h1c4.11.91,9.62.93,16.24-1.91,15.12-6.48,40.8-22.08,17.52-38.16a81.94,81.94,0,0,0-21.26-10.62l-1.06-.18c17.28-30.72-39.6-33.84-39.6-33.84l1-.35c2.29-.62,9.48-2.61,9.63-4.93.18-2.7,3.33-13.19-18.81-14.81l-.63-.49C202.39,20,169.52,22.54,167.2,22.48S151.6,26.32,151.6,34a15.35,15.35,0,0,0,.56,4.42l.22,1.16s-32.94-1.26-42.06,9.78C101.8,59.67,91.41,63.49,94.36,81l-.12,1S82.43,88.09,79.6,93.52c-4,7.6-3.22,11.94-.44,14.34l.44.78c-2.88-1.68-12,4.8-12,4.8C45.21,130.85,54.88,137,58.72,143.2S94.48,149,100.24,148a14.69,14.69,0,0,0,2.94-.9Z"/><line class="a14e91c1-26c4-4e7a-af59-b563d2807d91" x1="43.02" y1="256.14" x2="53.28" y2="253.08"/><path class="a14e91c1-26c4-4e7a-af59-b563d2807d91" d="M126.9,232c-.36,1.8-8.28,11.52-8.82,13.86s-5.94,2.52-7.38,4.68-22,9.36-22,9.18,17.28-4.32,19.8-3.42,14.94-3.24,16.74-4.86,8.82-7,8.82-7c13.32-1.8,20,9.18,20,9.18,6.84-4,17.28,8.1,19.8,6.66s-11.16-9.54-15.66-16.56-2.16-5.58,1.26-6.84,9.9,6.66,15.84,5.94,25.74,8.28,25.2,6.84-5-3.6-6.84-5.94-16.74-7.56-20-9-7.92-3.6-8.64-5.58-.36-10.62-.36-15.12,7.38-14.58,9.36-17.82-1.44-6.66-1.44-10.44,2.7-6.66,4.5-10.44,8.1-1.8,13-2.7,8.64-5.94,13-11.34,15.48-4.14,18-6.48.18.9-7-.36-14.22,4.32-15.3,4-3.42,4.14-6.12,4.86,3.42-8.82,5-14.76-2.34-1.44-2.16-1.62-7.2,11.16-8.64,14.58-4.5,1.8-7.56,2.34-9.36,3.42-9,0,2.7-9-7.56-22-6.84,1.08-7,1.8-1.62,14.76-4.68,5.58-7.74-8.82-7.56-5.58-.18,9.72-1.8,9.36-19.8-9.54-10.8-2.7,9.36,15.12,10.26,17.82-8.82,5.4-10.62,5.4-7.74-7.38-12.24-10.08-2.52-7.56-7-18.36-5.4.54-4,1.26,0,4.32,1.44,8.1-2.34,3.42-4.14,2.7-14-1.8-4.68,1.8,13.86,11.7,14.94,12.24,6.12,14.58,11.34,14.4,10.26-.18,10.62,4-2.34,9.36-3.78,11.52-6.3-.72-6.66,11-5,10.26-6.48,14.22-17.28,10.62-23.22,8.82S75.78,243.18,72,245.34a58,58,0,0,1-9.72,4s23.76-3.06,26.1-6.12,3.42,2.16,5.22,1.44,4.86-6.3,5.76-4.32-2,4.68.72,4.14,18.26-1.34,20.24-2.78"/><path class="a14e91c1-26c4-4e7a-af59-b563d2807d91" d="M136.8,261.36s-12.54-7.2-20.4-6.12"/><path class="a14e91c1-26c4-4e7a-af59-b563d2807d91" d="M162.6,262.68s12.12.48,16.08,4.8"/><path class="a14e91c1-26c4-4e7a-af59-b563d2807d91" d="M210.72,253s5.52,2.52,7.2,2,3-3,4.44-.12,8.4,0,15.6,4.44"/><path class="a14e91c1-26c4-4e7a-af59-b563d2807d91" d="M148.2,232.44s1.44,10.68,5.64,13.32"/><path class="a14e91c1-26c4-4e7a-af59-b563d2807d91" d="M127.92,225.48s3.48-11.88,4.2-15.6c.29-1.51-1-5.16-2.88-.84"/><path class="a14e91c1-26c4-4e7a-af59-b563d2807d91" d="M159.24,197.52s-2.16,4.44-1.56,8.4"/><path class="a14e91c1-26c4-4e7a-af59-b563d2807d91" d="M169.2,194.88s-.36-3.72-3.36-1.08-4.44,6.48-3.72,6.6,1.68,5.16,5-2.64"/><path class="a14e91c1-26c4-4e7a-af59-b563d2807d91" d="M164,159.84a31,31,0,0,0-1.44,6.84c0,2.4.24,7.2.84,8.52s1.32,7.08-2.64,9.36"/><path class="a14e91c1-26c4-4e7a-af59-b563d2807d91" d="M159.12,213.24s-1,13.08-2.88,15.48,1.92,6.84,4.92,8.28"/><path class="a14e91c1-26c4-4e7a-af59-b563d2807d91" d="M134.16,186.24s1.44,3.36,8.4-2.4"/><path class="a14e91c1-26c4-4e7a-af59-b563d2807d91" d="M110.64,166.8s-6.24,6.72-10.8,7.44-9.6,2.64-16.08-6.24"/><path class="a14e91c1-26c4-4e7a-af59-b563d2807d91" d="M99.9,158.94s-13,9.3-18.78,10.26-37.68,1.44-41.52-4.8-13.51-12.35,8.88-29.76c0,0,9.12-6.48,12-4.8"/><path class="a14e91c1-26c4-4e7a-af59-b563d2807d91" d="M58.08,153.12s11.28,11,20.4-.48"/><path class="a14e91c1-26c4-4e7a-af59-b563d2807d91" d="M74.4,156.24s8.68,10.72,23.28-1c0,0,6-3.6,6-7.2"/><path class="a14e91c1-26c4-4e7a-af59-b563d2807d91" d="M120.48,133.44s-12,9.84-20.4,7-17-6.24-20.4-9.6c0,0-31.2,7-19.2-16.08,2.83-5.43,14.64-11.52,14.64-11.52"/><path class="a14e91c1-26c4-4e7a-af59-b563d2807d91" d="M118.56,146.16s21.36,8.4,29-12.72"/><path class="a14e91c1-26c4-4e7a-af59-b563d2807d91" d="M138.24,123.84s8.4,16.8,14.16,5.76"/><path class="a14e91c1-26c4-4e7a-af59-b563d2807d91" d="M153.84,134.4s39.12,19,55.2,6.72"/><path class="a14e91c1-26c4-4e7a-af59-b563d2807d91" d="M169.68,152.4s12.6,10.62,15.48,11.1"/><path class="a14e91c1-26c4-4e7a-af59-b563d2807d91" d="M121.08,165.6s14.28-1.32,15.6-8.4"/><path class="a14e91c1-26c4-4e7a-af59-b563d2807d91" d="M197.28,167.52s26.64,7,36.48-3.36"/><path class="a14e91c1-26c4-4e7a-af59-b563d2807d91" d="M226.56,160.32s9.36,8.4,24.48,1.92,40.8-22.08,17.52-38.16-43.68-13.92-43.68-13.92"/><path class="a14e91c1-26c4-4e7a-af59-b563d2807d91" d="M206.64,79.44s56.88,3.12,39.6,33.84"/><path class="a14e91c1-26c4-4e7a-af59-b563d2807d91" d="M196.32,131.76s14.4,16.32,27.84,8.64"/><path class="a14e91c1-26c4-4e7a-af59-b563d2807d91" d="M215.76,147.6s7,12,18,7.44"/><path class="a14e91c1-26c4-4e7a-af59-b563d2807d91" d="M184.32,109s7.44,12.24,15.6,4.56"/><path class="a14e91c1-26c4-4e7a-af59-b563d2807d91" d="M196.8,107s11.28,15.12,21.6,1"/><path class="a14e91c1-26c4-4e7a-af59-b563d2807d91" d="M135.84,89s7.08,14.28,15.84,7.32"/><path class="a14e91c1-26c4-4e7a-af59-b563d2807d91" d="M168.24,86.52s-3.6,17.4-16,9.72"/><path class="a14e91c1-26c4-4e7a-af59-b563d2807d91" d="M133.26,60.78s-32.94-1.26-42.06,9.78S70.8,85.2,76.08,106.08"/><path class="a14e91c1-26c4-4e7a-af59-b563d2807d91" d="M136.32,63.6s-3.84-.72-3.84-8.4,13.15-11.58,15.6-11.52,41-2.88,53,20.16"/><path class="a14e91c1-26c4-4e7a-af59-b563d2807d91" d="M206.05,79.6s11-2.74,11.21-5.44S220.59,61,198.45,59.35"/></g></svg>