<svg xmlns="http://www.w3.org/2000/svg" viewBox="0 0 332.28 268.6"><defs><style>.abd03900-0879-4411-9cac-5103ee3cab02,.ad078acb-ba5a-4c4c-b525-f869e2ffc0c4,.eb6b4af8-053f-48f4-88db-129ffe75fe13{fill:none;stroke:#1d1d1b;stroke-width:2px;}.ad078acb-ba5a-4c4c-b525-f869e2ffc0c4,.eb6b4af8-053f-48f4-88db-129ffe75fe13{stroke-miterlimit:10;}.ec3773ea-1fd4-4934-aba3-876a86ba5003{fill:#faf5bd;}.eb6b4af8-053f-48f4-88db-129ffe75fe13{stroke-linecap:round;}.abd03900-0879-4411-9cac-5103ee3cab02{font-size:60px;font-family:PhosphateSolid;}</style></defs><title>dTeilorg_Explorador_Iconos</title><g id="a6fa7493-46b4-468c-8144-a94225e80cfd" data-name="Podium"><path class="ad078acb-ba5a-4c4c-b525-f869e2ffc0c4" d="M34.56,255.12l-.36-63s-.81-16.83,16.92-16.92c9.75,0,59.4.72,59.4.72s9.36,0,9.36-9.36.36-50.4.36-50.4-2-15.12,13.32-15.48c16.3-.38,55.08.36,55.08.36s16-.9,16.2,14v64.8s-.36,5.76,9.36,6.12,60.48.36,60.48.36,15.12-.24,15.48,14c.29,11.52,0,54.45,0,54.45"/><path class="ec3773ea-1fd4-4934-aba3-876a86ba5003" d="M171.16,8.71c7.1,0,6.83,21.29,12.57,25.47s25.91-2.67,28.11,4.08S193.69,51.34,191.5,58.09s10.54,23.82,4.8,28-18-13.21-25.14-13.21S151.76,90.26,146,86.08s7-21.24,4.8-28S128.29,45,130.48,38.26s22.37.09,28.11-4.08S164.06,8.71,171.16,8.71Z"/><path class="eb6b4af8-053f-48f4-88db-129ffe75fe13" d="M162.12,22.23c7.1,0,6.83,21.29,12.57,25.47S200.6,45,202.8,51.78s-18.15,13.08-20.34,19.83,10.54,23.82,4.8,28-18-13.21-25.14-13.21S142.72,103.78,137,99.6s7-21.24,4.8-28-22.53-13.07-20.34-19.83,22.37.09,28.11-4.08S155,22.23,162.12,22.23Z"/><text class="abd03900-0879-4411-9cac-5103ee3cab02" transform="translate(153.96 163.92)">1</text><text class="abd03900-0879-4411-9cac-5103ee3cab02" transform="translate(65.44 236.44)">2</text><text class="abd03900-0879-4411-9cac-5103ee3cab02" transform="translate(240.64 239.8)">3</text><line class="ad078acb-ba5a-4c4c-b525-f869e2ffc0c4" x1="6.12" y1="255.12" x2="314.28" y2="255.12"/></g></svg>