<svg xmlns="http://www.w3.org/2000/svg" viewBox="0 0 352.08 251.28"><defs><style>.af78f782-2ee6-4d58-b0e6-cf8927bc0b0b{fill:#f6b198;}.acf158bc-5daa-4bbc-a1c0-164b764a6f10{fill:none;stroke:#1d1d1b;stroke-miterlimit:10;stroke-width:2px;}</style></defs><title>dTeilorg_Explorador_Iconos</title><g id="bca27833-f982-41be-922c-ee58d52f92c2" data-name="Cadena de montaje"><polygon class="af78f782-2ee6-4d58-b0e6-cf8927bc0b0b" points="104.17 131.08 104.17 65.99 166.3 72.4 166.3 136.51 104.17 131.08"/><polyline class="af78f782-2ee6-4d58-b0e6-cf8927bc0b0b" points="104.17 65.99 149.04 52.68 208.22 56.62 208.22 119.37 166.3 136.51"/><line class="af78f782-2ee6-4d58-b0e6-cf8927bc0b0b" x1="166.3" y1="72.4" x2="208.22" y2="56.62"/><polyline class="af78f782-2ee6-4d58-b0e6-cf8927bc0b0b" points="128.33 68.95 128.33 80.29 144.11 81.77 144.11 70.43"/><line class="af78f782-2ee6-4d58-b0e6-cf8927bc0b0b" x1="129.81" y1="68.58" x2="169.88" y2="54.05"/><line class="af78f782-2ee6-4d58-b0e6-cf8927bc0b0b" x1="142.7" y1="70.03" x2="180.93" y2="54.79"/><polyline class="af78f782-2ee6-4d58-b0e6-cf8927bc0b0b" points="181.1 54.79 181.1 32.46 243.23 38.87 243.23 102.98 208.55 99.95"/><polyline class="af78f782-2ee6-4d58-b0e6-cf8927bc0b0b" points="181.1 32.46 225.97 19.15 285.14 23.09 285.14 85.84 243.23 102.98"/><line class="af78f782-2ee6-4d58-b0e6-cf8927bc0b0b" x1="243.23" y1="38.87" x2="285.15" y2="23.09"/><polyline class="af78f782-2ee6-4d58-b0e6-cf8927bc0b0b" points="205.26 35.42 205.26 46.76 221.04 48.24 221.04 36.9"/><line class="af78f782-2ee6-4d58-b0e6-cf8927bc0b0b" x1="206.74" y1="35.05" x2="246.81" y2="20.52"/><line class="af78f782-2ee6-4d58-b0e6-cf8927bc0b0b" x1="219.62" y1="36.5" x2="257.86" y2="21.26"/><polygon class="acf158bc-5daa-4bbc-a1c0-164b764a6f10" points="90.79 157.66 90.79 92.57 152.92 98.98 152.92 163.08 90.79 157.66"/><polyline class="acf158bc-5daa-4bbc-a1c0-164b764a6f10" points="90.79 92.57 135.66 79.25 194.84 83.2 194.84 145.95 152.92 163.08"/><line class="acf158bc-5daa-4bbc-a1c0-164b764a6f10" x1="152.92" y1="98.98" x2="194.83" y2="83.2"/><polyline class="acf158bc-5daa-4bbc-a1c0-164b764a6f10" points="114.95 95.53 114.95 106.87 130.73 108.35 130.73 97"/><line class="acf158bc-5daa-4bbc-a1c0-164b764a6f10" x1="122.84" y1="107.36" x2="122.84" y2="110.5"/><line class="acf158bc-5daa-4bbc-a1c0-164b764a6f10" x1="116.43" y1="95.15" x2="156.49" y2="80.63"/><line class="acf158bc-5daa-4bbc-a1c0-164b764a6f10" x1="129.31" y1="96.6" x2="167.55" y2="81.37"/><polyline class="acf158bc-5daa-4bbc-a1c0-164b764a6f10" points="167.71 81.37 167.71 59.03 229.85 65.44 229.85 129.55 195.17 126.52"/><polyline class="acf158bc-5daa-4bbc-a1c0-164b764a6f10" points="167.71 59.03 212.59 45.72 271.76 49.66 271.76 112.41 229.85 129.55"/><line class="acf158bc-5daa-4bbc-a1c0-164b764a6f10" x1="229.85" y1="65.44" x2="271.76" y2="49.66"/><polyline class="acf158bc-5daa-4bbc-a1c0-164b764a6f10" points="191.88 61.99 191.88 73.33 207.66 74.81 207.66 63.47"/><line class="acf158bc-5daa-4bbc-a1c0-164b764a6f10" x1="199.77" y1="73.83" x2="199.77" y2="76.97"/><line class="acf158bc-5daa-4bbc-a1c0-164b764a6f10" x1="193.36" y1="61.62" x2="233.42" y2="47.1"/><line class="acf158bc-5daa-4bbc-a1c0-164b764a6f10" x1="206.24" y1="63.07" x2="244.47" y2="47.84"/><path class="acf158bc-5daa-4bbc-a1c0-164b764a6f10" d="M91,148.12S42.3,161.93,34.41,171.79,37,188.89,37,188.89s101.31,8.61,104.56,9A31.31,31.31,0,0,0,156,196.12c10.52-3.94,188-69,188-69s13.81-21.69-3.94-17.09-194.62,73.64-194.62,73.64-6.74,5.42-6.08,14.46"/><path class="acf158bc-5daa-4bbc-a1c0-164b764a6f10" d="M34.33,186.87s-13.2-22.67-1.24-27.24c12.58-4.81,57.7-21.2,57.7-21.2"/><line class="acf158bc-5daa-4bbc-a1c0-164b764a6f10" x1="42.96" y1="176.89" x2="140.59" y2="183.3"/><line class="acf158bc-5daa-4bbc-a1c0-164b764a6f10" x1="72.54" y1="165.05" x2="162.78" y2="172.45"/><line class="acf158bc-5daa-4bbc-a1c0-164b764a6f10" x1="166.12" y1="157.66" x2="192.12" y2="159.63"/><line class="acf158bc-5daa-4bbc-a1c0-164b764a6f10" x1="187.66" y1="148.89" x2="212.83" y2="150.75"/><line class="acf158bc-5daa-4bbc-a1c0-164b764a6f10" x1="195.08" y1="138.92" x2="236.26" y2="142.12"/><line class="acf158bc-5daa-4bbc-a1c0-164b764a6f10" x1="195.44" y1="128.07" x2="260.42" y2="133"/><line class="acf158bc-5daa-4bbc-a1c0-164b764a6f10" x1="250.94" y1="121.28" x2="281.62" y2="123.63"/><line class="acf158bc-5daa-4bbc-a1c0-164b764a6f10" x1="269.79" y1="113.11" x2="309.48" y2="115.5"/><line class="acf158bc-5daa-4bbc-a1c0-164b764a6f10" x1="337.51" y1="110.65" x2="272.42" y2="106.04"/></g></svg>