<svg xmlns="http://www.w3.org/2000/svg" xmlns:xlink="http://www.w3.org/1999/xlink" viewBox="0 0 330.48 327.24"><defs><style>.b297c590-6436-44cc-9411-e75f7246d153,.b3195b61-b3c4-480c-9e97-83496d9eb58a,.b8f09705-4d25-4747-945e-fbbe95223810,.be6fa536-36a8-441d-9948-a0c029c6088a,.e03279d1-4d19-4cb1-ac36-a1422ac70853,.eb46c019-ecd7-4111-85f0-40aed1fa3870{fill:none;}.b297c590-6436-44cc-9411-e75f7246d153,.b2de0047-405c-4648-907f-1f29c21ff9c3,.b3195b61-b3c4-480c-9e97-83496d9eb58a,.b814ae9a-b9dd-43f0-b682-455d7c6c464d,.b8f09705-4d25-4747-945e-fbbe95223810,.be6fa536-36a8-441d-9948-a0c029c6088a,.e0326131-0c91-4fdd-8702-8f76bc3ab6b9,.e03279d1-4d19-4cb1-ac36-a1422ac70853,.eb46c019-ecd7-4111-85f0-40aed1fa3870,.fc18694f-ac69-41ad-b4f1-e3ffc2d27d1e{stroke-miterlimit:10;}.b297c590-6436-44cc-9411-e75f7246d153,.b8f09705-4d25-4747-945e-fbbe95223810{stroke-width:2px;}.b8f09705-4d25-4747-945e-fbbe95223810{stroke:url(#bae177d4-ca84-43c4-b9e3-ed8dd74cbf5f);}.b297c590-6436-44cc-9411-e75f7246d153{stroke:url(#a3566de3-2bdc-46a2-954d-4d19a47242b1);}.b3195b61-b3c4-480c-9e97-83496d9eb58a,.e03279d1-4d19-4cb1-ac36-a1422ac70853{stroke-width:5px;}.b3195b61-b3c4-480c-9e97-83496d9eb58a{stroke:url(#e8eefbff-3eb3-4249-8b1a-9929db3854e5);}.e03279d1-4d19-4cb1-ac36-a1422ac70853{stroke:url(#b301eb16-3f14-4298-a0e3-847f36de21f2);}.be6fa536-36a8-441d-9948-a0c029c6088a,.eb46c019-ecd7-4111-85f0-40aed1fa3870{stroke-width:3px;}.be6fa536-36a8-441d-9948-a0c029c6088a{stroke:url(#ba3f50df-096f-4ed1-8db2-2395f38bd745);}.eb46c019-ecd7-4111-85f0-40aed1fa3870{stroke:url(#acca0c0a-6480-4e1e-a29a-a12994e0379b);}.b2de0047-405c-4648-907f-1f29c21ff9c3,.b814ae9a-b9dd-43f0-b682-455d7c6c464d,.e0326131-0c91-4fdd-8702-8f76bc3ab6b9,.fc18694f-ac69-41ad-b4f1-e3ffc2d27d1e{fill:#fff;stroke:#fff;}.b2de0047-405c-4648-907f-1f29c21ff9c3{font-size:24.96px;}.b2de0047-405c-4648-907f-1f29c21ff9c3,.b814ae9a-b9dd-43f0-b682-455d7c6c464d{font-family:Reduza_Infinity, Reduza Infinity;}.b66b2046-4d00-460d-b8bc-4c71e7dacc0e{letter-spacing:-0.11em;}.e312f987-76a4-4271-a7b3-8756c51e64c7{letter-spacing:0em;}.ace17d92-52f9-493e-a7ad-8d63f5c23c04{letter-spacing:-0.1em;}.fc18694f-ac69-41ad-b4f1-e3ffc2d27d1e{font-size:58.67px;font-family:Roboto-Light, Roboto;font-weight:300;}.baf82df0-37f4-441f-bf3d-135b4d768af7{letter-spacing:-0.01em;}.ab6dbde5-161e-4441-9dc3-a59b998c6ea3{letter-spacing:-0.01em;}.b814ae9a-b9dd-43f0-b682-455d7c6c464d{font-size:29.96px;}.bc3a6ef6-d737-40da-91ab-f0de8ea40418{letter-spacing:-0.15em;}</style><linearGradient id="bae177d4-ca84-43c4-b9e3-ed8dd74cbf5f" x1="73.27" y1="45.64" x2="284" y2="45.64" gradientUnits="userSpaceOnUse"><stop offset="0" stop-color="#7aa19c"/><stop offset="1" stop-color="#daa771"/></linearGradient><linearGradient id="a3566de3-2bdc-46a2-954d-4d19a47242b1" x1="38.69" y1="284.15" x2="253.69" y2="284.15" xlink:href="#bae177d4-ca84-43c4-b9e3-ed8dd74cbf5f"/><linearGradient id="e8eefbff-3eb3-4249-8b1a-9929db3854e5" x1="43.73" y1="222.84" x2="294.58" y2="222.84" xlink:href="#bae177d4-ca84-43c4-b9e3-ed8dd74cbf5f"/><linearGradient id="b301eb16-3f14-4298-a0e3-847f36de21f2" x1="28.34" y1="103.67" x2="272.93" y2="103.67" xlink:href="#bae177d4-ca84-43c4-b9e3-ed8dd74cbf5f"/><linearGradient id="ba3f50df-096f-4ed1-8db2-2395f38bd745" x1="161.46" y1="224.8" x2="280.78" y2="224.8" xlink:href="#bae177d4-ca84-43c4-b9e3-ed8dd74cbf5f"/><linearGradient id="acca0c0a-6480-4e1e-a29a-a12994e0379b" x1="42.14" y1="107.71" x2="165.62" y2="107.71" xlink:href="#bae177d4-ca84-43c4-b9e3-ed8dd74cbf5f"/></defs><title>dTeilorg_Web_Prod1_Imgen_Sello_BCGarantee_Blanco</title><g id="ec9a40b0-b659-4eee-9481-d381184efaad" data-name="Capa 3"><path class="b8f09705-4d25-4747-945e-fbbe95223810" d="M73.85,43.27a150.26,150.26,0,0,1,209.34,33.5"/><path class="b297c590-6436-44cc-9411-e75f7246d153" d="M253.09,284.37A150.25,150.25,0,0,1,39.5,252.53"/><path class="b3195b61-b3c4-480c-9e97-83496d9eb58a" d="M290.89,147.6a132.54,132.54,0,0,1,1.19,17.7,130.64,130.64,0,0,1-246.14,61"/><path class="e03279d1-4d19-4cb1-ac36-a1422ac70853" d="M31.19,175c-.23-3.19-.35-6.42-.35-9.67a130.63,130.63,0,0,1,240-71.42"/><path class="be6fa536-36a8-441d-9948-a0c029c6088a" d="M279.28,165.14A117.82,117.82,0,0,1,161.46,283"/><path class="eb46c019-ecd7-4111-85f0-40aed1fa3870" d="M43.72,169.55c0-1.46-.08-2.93-.08-4.41A117.82,117.82,0,0,1,161.46,47.32c1.37,0,2.74,0,4.11.07"/></g><g id="ea7f9344-bb96-4b20-8a29-3478f8a7428d" data-name="Contenido"><polygon class="e0326131-0c91-4fdd-8702-8f76bc3ab6b9" points="130.75 65.11 138.8 73.59 150.34 71.76 144.77 82.03 150.08 92.45 138.59 90.33 130.32 98.59 128.79 87 118.37 81.7 128.92 76.66 130.75 65.11"/><polygon class="e0326131-0c91-4fdd-8702-8f76bc3ab6b9" points="167.15 62.77 172.81 68.76 180.94 67.49 176.99 74.72 180.71 82.06 172.62 80.54 166.78 86.34 165.73 78.18 158.41 74.42 165.84 70.9 167.15 62.77"/><polygon class="e0326131-0c91-4fdd-8702-8f76bc3ab6b9" points="101.33 85.26 106.98 91.24 115.11 89.98 111.17 97.2 114.88 104.54 106.8 103.02 100.96 108.82 99.91 100.66 92.58 96.91 100.02 93.38 101.33 85.26"/><polygon class="e0326131-0c91-4fdd-8702-8f76bc3ab6b9" points="199.91 259.72 191.49 251.62 180.03 253.97 185.14 243.45 179.37 233.28 190.95 234.89 198.83 226.26 200.88 237.76 211.53 242.6 201.22 248.11 199.91 259.72"/><polygon class="e0326131-0c91-4fdd-8702-8f76bc3ab6b9" points="162.6 262.7 156.69 256.97 148.62 258.6 152.23 251.21 148.19 244.04 156.34 245.19 161.91 239.14 163.33 247.24 170.81 250.67 163.54 254.52 162.6 262.7"/><polygon class="e0326131-0c91-4fdd-8702-8f76bc3ab6b9" points="228.39 238.28 222.48 232.55 214.41 234.18 218.03 226.79 213.99 219.62 222.13 220.77 227.7 214.72 229.12 222.82 236.6 226.25 229.34 230.1 228.39 238.28"/><text class="b2de0047-405c-4648-907f-1f29c21ff9c3" transform="translate(84.52 147.02) rotate(-18.71)">B<tspan class="b66b2046-4d00-460d-b8bc-4c71e7dacc0e" x="15.51" y="0">L</tspan><tspan class="e312f987-76a4-4271-a7b3-8756c51e64c7" x="28.26" y="0">OC</tspan><tspan class="ace17d92-52f9-493e-a7ad-8d63f5c23c04" x="65.63" y="0">K</tspan><tspan x="76.36" y="0">CHAIN</tspan></text><text class="fc18694f-ac69-41ad-b4f1-e3ffc2d27d1e" transform="translate(10.06 232.85) rotate(-18.71)">G<tspan class="baf82df0-37f4-441f-bf3d-135b4d768af7" x="40.39" y="0">U</tspan><tspan x="79.12" y="0">ARA</tspan><tspan class="ab6dbde5-161e-4441-9dc3-a59b998c6ea3" x="189.35" y="0">N</tspan><tspan x="229.92" y="0">TEE</tspan></text><text class="b814ae9a-b9dd-43f0-b682-455d7c6c464d" transform="translate(88.14 245.22) rotate(-18.71)">BE<tspan class="bc3a6ef6-d737-40da-91ab-f0de8ea40418" x="37.21" y="0">S</tspan><tspan x="48.04" y="0">T QUALITY</tspan></text></g></svg>