<svg id="a17bc5e5-09b9-4827-ba48-2ba793059553" data-name="Capa 2" xmlns="http://www.w3.org/2000/svg" viewBox="0 0 332.28 268.6"><defs><style>.a787f7ff-d808-41e4-9fa0-611a281275f4,.b1a28082-464b-42bc-b7e0-d1e849953386,.e3e25ef5-33e6-493d-8775-62f63e19ca7a{fill:none;stroke:#1d1d1b;stroke-width:2px;}.a787f7ff-d808-41e4-9fa0-611a281275f4,.b1a28082-464b-42bc-b7e0-d1e849953386{stroke-miterlimit:10;}.ac44f830-7a37-4f64-aebc-a47c5eb50b67{fill:#faf5bd;}.b1a28082-464b-42bc-b7e0-d1e849953386{stroke-linecap:round;}.e3e25ef5-33e6-493d-8775-62f63e19ca7a{font-size:60px;font-family:PhosphateSolid;}</style></defs><title>Podium</title><path class="a787f7ff-d808-41e4-9fa0-611a281275f4" d="M34.56,255.12l-.36-63s-.81-16.83,16.92-16.92c9.75,0,59.4.72,59.4.72s9.36,0,9.36-9.36.36-50.4.36-50.4-2-15.12,13.32-15.48c16.3-.38,55.08.36,55.08.36s16-.9,16.2,14v64.8s-.36,5.76,9.36,6.12,60.48.36,60.48.36,15.12-.24,15.48,14c.29,11.52,0,54.45,0,54.45"/><path class="ac44f830-7a37-4f64-aebc-a47c5eb50b67" d="M171.16,8.71c7.1,0,6.83,21.29,12.57,25.47s25.91-2.67,28.11,4.08S193.69,51.34,191.5,58.09s10.54,23.82,4.8,28-18-13.21-25.14-13.21S151.76,90.26,146,86.08s7-21.24,4.8-28S128.29,45,130.48,38.26s22.37.09,28.11-4.08S164.06,8.71,171.16,8.71Z"/><path class="b1a28082-464b-42bc-b7e0-d1e849953386" d="M162.12,22.23c7.1,0,6.83,21.29,12.57,25.47S200.6,45,202.8,51.78s-18.15,13.08-20.34,19.83,10.54,23.82,4.8,28-18-13.21-25.14-13.21S142.72,103.78,137,99.6s7-21.24,4.8-28-22.53-13.07-20.34-19.83,22.37.09,28.11-4.08S155,22.23,162.12,22.23Z"/><text class="e3e25ef5-33e6-493d-8775-62f63e19ca7a" transform="translate(153.96 163.92)">1</text><text class="e3e25ef5-33e6-493d-8775-62f63e19ca7a" transform="translate(65.44 236.44)">2</text><text class="e3e25ef5-33e6-493d-8775-62f63e19ca7a" transform="translate(240.64 239.8)">3</text><line class="a787f7ff-d808-41e4-9fa0-611a281275f4" x1="6.12" y1="255.12" x2="314.28" y2="255.12"/></svg>